<svg width="55" height="55" viewBox="0 0 55 55" fill="none" xmlns="http://www.w3.org/2000/svg">
<path d="M29.3947 14.5908L41.986 36.3987C42.178 36.7313 42.2791 37.1085 42.2791 37.4925C42.2791 37.8765 42.178 38.2537 41.986 38.5862C41.794 38.9188 41.5179 39.1949 41.1854 39.3869C40.8528 39.5789 40.4756 39.68 40.0916 39.68H14.9091C14.5251 39.68 14.1479 39.5789 13.8154 39.3869C13.4829 39.1949 13.2067 38.9188 13.0147 38.5862C12.8227 38.2537 12.7217 37.8765 12.7217 37.4925C12.7217 37.1085 12.8228 36.7313 13.0147 36.3987L25.606 14.5908C26.4475 13.1325 28.5518 13.1325 29.3947 14.5908ZM27.5004 31.875C27.1136 31.875 26.7427 32.0286 26.4692 32.3021C26.1957 32.5756 26.042 32.9465 26.042 33.3333C26.042 33.7201 26.1957 34.091 26.4692 34.3645C26.7427 34.638 27.1136 34.7917 27.5004 34.7917C27.8871 34.7917 28.2581 34.638 28.5316 34.3645C28.8051 34.091 28.9587 33.7201 28.9587 33.3333C28.9587 32.9465 28.8051 32.5756 28.5316 32.3021C28.2581 32.0286 27.8871 31.875 27.5004 31.875ZM27.5004 21.6667C27.1432 21.6667 26.7984 21.7978 26.5315 22.0352C26.2646 22.2726 26.094 22.5996 26.0522 22.9544L26.042 23.125V28.9583C26.0425 29.33 26.1848 29.6875 26.4399 29.9578C26.6951 30.2281 27.0438 30.3907 27.4149 30.4125C27.786 30.4343 28.1513 30.3136 28.4364 30.075C28.7214 29.8365 28.9046 29.498 28.9485 29.1289L28.9587 28.9583V23.125C28.9587 22.7382 28.8051 22.3673 28.5316 22.0938C28.2581 21.8203 27.8871 21.6667 27.5004 21.6667Z" fill="white"/>
<circle cx="27.5" cy="27.5" r="25" stroke="white" stroke-width="5"/>
</svg>
