<svg width="65" height="65" viewBox="0 0 65 65" fill="none" xmlns="http://www.w3.org/2000/svg">
<path d="M51.4587 54.1667H13.542C9.06241 54.1667 5.41699 50.5213 5.41699 46.0417V24.375C5.41699 19.8955 9.06241 16.25 13.542 16.25H17.8374L20.5457 13.5417C22.1139 11.9736 24.8682 10.8334 27.0837 10.8334H37.917C40.1324 10.8334 42.8868 11.9736 44.4549 13.5417L47.1632 16.25H51.4587C55.9382 16.25 59.5837 19.8955 59.5837 24.375V46.0417C59.5837 50.5213 55.9382 54.1667 51.4587 54.1667ZM13.542 21.6667C12.8237 21.6667 12.1348 21.952 11.6269 22.46C11.119 22.9679 10.8337 23.6567 10.8337 24.375V46.0417C10.8337 46.76 11.119 47.4489 11.6269 47.9568C12.1348 48.4647 12.8237 48.75 13.542 48.75H51.4587C52.177 48.75 52.8658 48.4647 53.3737 47.9568C53.8817 47.4489 54.167 46.76 54.167 46.0417V24.375C54.167 23.6567 53.8817 22.9679 53.3737 22.46C52.8658 21.952 52.177 21.6667 51.4587 21.6667H46.042C45.3238 21.6666 44.635 21.3811 44.1272 20.8732L40.6253 17.3713C40.081 16.8269 38.6889 16.25 37.917 16.25H27.0837C26.3118 16.25 24.9197 16.8269 24.3753 17.3713L20.8735 20.8732C20.3657 21.3811 19.6769 21.6666 18.9587 21.6667H13.542ZM32.5003 27.0834C36.2351 27.0834 39.2712 30.1194 39.2712 33.8542C39.2712 37.589 36.2351 40.625 32.5003 40.625C28.7655 40.625 25.7295 37.589 25.7295 33.8542C25.7295 30.1194 28.7655 27.0834 32.5003 27.0834ZM32.5003 24.375C29.9863 24.375 27.5752 25.3737 25.7975 27.1514C24.0199 28.9291 23.0212 31.3402 23.0212 33.8542C23.0212 36.3682 24.0199 38.7793 25.7975 40.557C27.5752 42.3347 29.9863 43.3334 32.5003 43.3334C35.0144 43.3334 37.4254 42.3347 39.2031 40.557C40.9808 38.7793 41.9795 36.3682 41.9795 33.8542C41.9795 31.3402 40.9808 28.9291 39.2031 27.1514C37.4254 25.3737 35.0144 24.375 32.5003 24.375ZM48.7503 23.5598C48.288 23.5598 47.8301 23.6509 47.403 23.8278C46.9758 24.0048 46.5877 24.2641 46.2607 24.5911C45.9338 24.918 45.6744 25.3061 45.4975 25.7333C45.3206 26.1605 45.2295 26.6183 45.2295 27.0807C45.2295 27.543 45.3206 28.0009 45.4975 28.428C45.6744 28.8552 45.9338 29.2433 46.2607 29.5703C46.5877 29.8972 46.9758 30.1566 47.403 30.3335C47.8301 30.5104 48.288 30.6015 48.7503 30.6015C49.6841 30.6015 50.5797 30.2306 51.2399 29.5703C51.9002 28.91 52.2712 28.0144 52.2712 27.0807C52.2712 26.1469 51.9002 25.2513 51.2399 24.5911C50.5797 23.9308 49.6841 23.5598 48.7503 23.5598Z" fill="white"/>
</svg>
