<svg width="30" height="25" viewBox="0 0 30 25" fill="none" xmlns="http://www.w3.org/2000/svg">
<path d="M2.72727 12.5C1.22727 12.5 0 11.25 0 9.72222V2.77778C0 1.25 1.22727 0 2.72727 0H13.6364C15.1364 0 16.3636 1.25 16.3636 2.77778V9.72222C16.3636 11.25 15.1364 12.5 13.6364 12.5H10.9091V16.6667L6.81818 12.5H2.72727ZM27.2727 20.8333C28.7727 20.8333 30 19.5833 30 18.0556V11.1111C30 9.58333 28.7727 8.33333 27.2727 8.33333H19.0909V9.72222C19.0909 12.7778 16.6364 15.2778 13.6364 15.2778V18.0556C13.6364 19.5833 14.8636 20.8333 16.3636 20.8333H19.0909V25L23.1818 20.8333H27.2727Z" fill="#4D5C52"/>
</svg>
