<svg width="157" height="157" viewBox="0 0 157 157" fill="none" xmlns="http://www.w3.org/2000/svg">
<path d="M77.8936 0.5C121.004 0.5 155.952 35.4221 155.952 78.5C155.952 121.578 121.004 156.5 77.8936 156.5C41.2635 156.5 10.5256 131.287 2.11328 97.2812C1.30575 94.0169 3.88733 90.9668 7.31641 90.9668C10.0018 90.9668 12.3061 92.901 12.999 95.543C20.5447 124.31 46.7382 145.533 77.8936 145.533C114.942 145.533 144.977 115.522 144.977 78.5C144.977 41.4781 114.942 11.4668 77.8936 11.4668C44.2445 11.467 16.3821 36.2233 11.5518 68.5039C11.1146 71.4246 8.70436 73.6924 5.80371 73.6924C2.6279 73.6923 0.127092 71.026 0.545898 67.9336C5.70671 29.854 38.3699 0.500223 77.8936 0.5Z" stroke="#4D5C52"/>
</svg>
