<svg width="18" height="21" viewBox="0 0 18 21" fill="none" xmlns="http://www.w3.org/2000/svg">
<path d="M16.3636 0H1.63636C1.20237 0 0.786157 0.170192 0.47928 0.473135C0.172402 0.776078 0 1.18696 0 1.61538V19.3846C0 19.813 0.172402 20.2239 0.47928 20.5269C0.786157 20.8298 1.20237 21 1.63636 21H16.3636C16.7976 21 17.2138 20.8298 17.5207 20.5269C17.8276 20.2239 18 19.813 18 19.3846V1.61538C18 1.18696 17.8276 0.776078 17.5207 0.473135C17.2138 0.170192 16.7976 0 16.3636 0ZM9.81818 12.0427V12.1154C9.81818 12.3296 9.73198 12.535 9.57854 12.6865C9.4251 12.838 9.217 12.9231 9 12.9231C8.783 12.9231 8.5749 12.838 8.42146 12.6865C8.26802 12.535 8.18182 12.3296 8.18182 12.1154V11.3077C8.18182 11.0935 8.26802 10.888 8.42146 10.7366C8.5749 10.5851 8.783 10.5 9 10.5C10.3531 10.5 11.4545 9.59135 11.4545 8.48077C11.4545 7.37019 10.3531 6.46154 9 6.46154C7.64693 6.46154 6.54545 7.37019 6.54545 8.48077V8.88461C6.54545 9.09883 6.45925 9.30427 6.30581 9.45574C6.15238 9.60721 5.94427 9.69231 5.72727 9.69231C5.51028 9.69231 5.30217 9.60721 5.14873 9.45574C4.99529 9.30427 4.90909 9.09883 4.90909 8.88461V8.48077C4.90909 6.47668 6.74386 4.84615 9 4.84615C11.2561 4.84615 13.0909 6.47668 13.0909 8.48077C13.0909 10.2355 11.6826 11.7045 9.81818 12.0427ZM10.2273 15.75C10.2273 15.9896 10.1553 16.2239 10.0204 16.4231C9.88558 16.6223 9.69391 16.7776 9.46966 16.8693C9.2454 16.961 8.99864 16.985 8.76057 16.9383C8.5225 16.8915 8.30382 16.7761 8.13219 16.6067C7.96055 16.4373 7.84366 16.2214 7.79631 15.9864C7.74895 15.7513 7.77326 15.5077 7.86615 15.2864C7.95904 15.065 8.11634 14.8758 8.31816 14.7426C8.51999 14.6095 8.75727 14.5385 9 14.5385C9.32549 14.5385 9.63765 14.6661 9.86781 14.8933C10.098 15.1205 10.2273 15.4287 10.2273 15.75Z" fill="#8C8C8C"/>
</svg>
