<svg width="28" height="28" viewBox="0 0 28 28" fill="none" xmlns="http://www.w3.org/2000/svg">
<path d="M23.201 14.6195L24.783 16.0282C25.0752 16.272 25.2704 16.6124 25.3333 16.9876C25.3962 17.3629 25.3227 17.7483 25.126 18.074L23.2185 21.3325C23.0706 21.5819 22.8592 21.7878 22.606 21.9292C22.3499 22.071 22.0623 22.1462 21.7695 22.148C21.5879 22.1491 21.4073 22.122 21.234 22.0675L19.2093 21.399C18.8546 21.6265 18.486 21.8301 18.1033 22.0097L17.678 24.0625C17.5994 24.4401 17.3891 24.7775 17.0848 25.0145C16.7766 25.2557 16.3946 25.3831 16.0033 25.375H12.0535C11.6623 25.3831 11.2802 25.2557 10.972 25.0145C10.6684 24.7772 10.4588 24.4399 10.3805 24.0625L9.95354 22.0097C9.57589 21.8277 9.20949 21.6231 8.85629 21.3972L6.82454 22.0675C6.6513 22.122 6.47064 22.1491 6.28904 22.148C5.9969 22.1459 5.70992 22.0707 5.45429 21.9292C5.20131 21.7883 4.99003 21.583 4.84179 21.3342L2.86604 18.074C2.66064 17.7453 2.58216 17.353 2.6453 16.9706C2.70845 16.5882 2.90888 16.2419 3.20904 15.9967L4.78929 14V13.3805L3.20729 11.9717C2.91515 11.728 2.71996 11.3876 2.65704 11.0124C2.59412 10.6371 2.66764 10.2517 2.86429 9.926L4.84004 6.6675C4.98803 6.41806 5.19934 6.21219 5.45254 6.07075C5.70817 5.9293 5.99515 5.85409 6.28729 5.852C6.46725 5.84065 6.64788 5.85717 6.82279 5.901L8.81429 6.601C9.17013 6.3735 9.53879 6.16991 9.92029 5.99025L10.3473 3.9375C10.4255 3.56014 10.6351 3.22279 10.9388 2.9855C11.247 2.74425 11.629 2.6169 12.0203 2.625H15.9368C16.3281 2.6169 16.7101 2.74425 17.0183 2.9855C17.3245 3.22525 17.5345 3.563 17.6098 3.9375L18.0368 5.99025C18.416 6.17108 18.7817 6.37525 19.134 6.60275L21.1675 5.93425C21.3932 5.86083 21.6317 5.83505 21.8679 5.85855C22.104 5.88205 22.3327 5.9543 22.5395 6.07075C22.7933 6.21425 23.0033 6.42075 23.152 6.66575L25.126 9.926C25.3342 10.2519 25.4167 10.6424 25.3581 11.0246C25.2995 11.4069 25.1038 11.7547 24.8075 12.0032L23.201 13.3717V14.6195Z" stroke="white"/>
<path d="M18.375 14C18.375 15.1603 17.9141 16.2731 17.0936 17.0936C16.2731 17.9141 15.1603 18.375 14 18.375C12.8397 18.375 11.7269 17.9141 10.9064 17.0936C10.0859 16.2731 9.625 15.1603 9.625 14C9.625 12.8397 10.0859 11.7269 10.9064 10.9064C11.7269 10.0859 12.8397 9.625 14 9.625C15.1603 9.625 16.2731 10.0859 17.0936 10.9064C17.9141 11.7269 18.375 12.8397 18.375 14Z" stroke="white"/>
</svg>
