<svg width="50" height="50" viewBox="0 0 50 50" fill="none" xmlns="http://www.w3.org/2000/svg">
<rect width="50" height="50" rx="15" fill="white"/>
<path d="M36.1664 22.5833C36.1664 22.1966 36.0127 21.8256 35.7392 21.5522C35.4657 21.2787 35.0948 21.125 34.708 21.125C34.3213 21.125 33.9503 21.2787 33.6768 21.5522C33.4033 21.8256 33.2497 22.1966 33.2497 22.5833H36.1664ZM15.7497 22.5833C15.7497 22.1966 15.596 21.8256 15.3226 21.5522C15.0491 21.2787 14.6781 21.125 14.2914 21.125C13.9046 21.125 13.5337 21.2787 13.2602 21.5522C12.9867 21.8256 12.833 22.1966 12.833 22.5833H15.7497ZM36.5936 26.5311C36.8687 26.7967 37.2371 26.9437 37.6194 26.9404C38.0018 26.937 38.3676 26.7837 38.638 26.5133C38.9084 26.2429 39.0617 25.8771 39.065 25.4948C39.0684 25.1124 38.9214 24.744 38.6557 24.469L36.5936 26.5311ZM24.4997 12.375L25.5307 11.344C25.2573 11.0706 24.8864 10.917 24.4997 10.917C24.113 10.917 23.7421 11.0706 23.4686 11.344L24.4997 12.375ZM10.3436 24.469C10.2044 24.6035 10.0933 24.7644 10.0168 24.9423C9.94041 25.1203 9.90018 25.3116 9.89849 25.5053C9.89681 25.6989 9.93371 25.8909 10.007 26.0702C10.0804 26.2494 10.1886 26.4122 10.3256 26.5491C10.4625 26.6861 10.6253 26.7943 10.8045 26.8677C10.9838 26.941 11.1758 26.9779 11.3694 26.9762C11.5631 26.9745 11.7544 26.9343 11.9324 26.8579C12.1103 26.7814 12.2712 26.6703 12.4057 26.5311L10.3436 24.469ZM17.208 40.0833H31.7914V37.1667H17.208V40.0833ZM36.1664 35.7083V22.5833H33.2497V35.7083H36.1664ZM15.7497 35.7083V22.5833H12.833V35.7083H15.7497ZM38.6557 24.469L25.5307 11.344L23.4686 13.4061L36.5936 26.5311L38.6557 24.469ZM23.4686 11.344L10.3436 24.469L12.4057 26.5311L25.5307 13.4061L23.4686 11.344ZM31.7914 40.0833C32.9517 40.0833 34.0645 39.6224 34.885 38.8019C35.7054 37.9815 36.1664 36.8687 36.1664 35.7083H33.2497C33.2497 36.0951 33.096 36.4661 32.8226 36.7395C32.5491 37.013 32.1781 37.1667 31.7914 37.1667V40.0833ZM17.208 37.1667C16.8212 37.1667 16.4503 37.013 16.1768 36.7395C15.9033 36.4661 15.7497 36.0951 15.7497 35.7083H12.833C12.833 36.8687 13.294 37.9815 14.1144 38.8019C14.9349 39.6224 16.0477 40.0833 17.208 40.0833V37.1667Z" fill="#282113"/>
</svg>
