<svg width="60" height="60" viewBox="0 0 60 60" fill="none" xmlns="http://www.w3.org/2000/svg">
<rect width="60" height="60" rx="15" fill="#282113"/>
<rect x="5" y="5" width="50" height="50" rx="15" fill="white"/>
<path d="M41.1664 27.5833C41.1664 27.1966 41.0127 26.8256 40.7392 26.5522C40.4657 26.2787 40.0948 26.125 39.708 26.125C39.3213 26.125 38.9503 26.2787 38.6768 26.5522C38.4033 26.8256 38.2497 27.1966 38.2497 27.5833H41.1664ZM20.7497 27.5833C20.7497 27.1966 20.596 26.8256 20.3226 26.5522C20.0491 26.2787 19.6781 26.125 19.2914 26.125C18.9046 26.125 18.5337 26.2787 18.2602 26.5522C17.9867 26.8256 17.833 27.1966 17.833 27.5833H20.7497ZM41.5936 31.5311C41.8687 31.7967 42.2371 31.9437 42.6194 31.9404C43.0018 31.937 43.3676 31.7837 43.638 31.5133C43.9084 31.2429 44.0617 30.8771 44.0651 30.4948C44.0684 30.1124 43.9214 29.744 43.6557 29.469L41.5936 31.5311ZM29.4997 17.375L30.5307 16.344C30.2573 16.0706 29.8864 15.917 29.4997 15.917C29.113 15.917 28.7421 16.0706 28.4686 16.344L29.4997 17.375ZM15.3436 29.469C15.2044 29.6035 15.0933 29.7644 15.0168 29.9423C14.9404 30.1203 14.9002 30.3116 14.8985 30.5053C14.8968 30.6989 14.9337 30.8909 15.007 31.0702C15.0804 31.2494 15.1886 31.4122 15.3256 31.5491C15.4625 31.6861 15.6253 31.7943 15.8045 31.8677C15.9838 31.941 16.1758 31.9779 16.3694 31.9762C16.5631 31.9745 16.7544 31.9343 16.9324 31.8579C17.1103 31.7814 17.2712 31.6703 17.4057 31.5311L15.3436 29.469ZM22.208 45.0833H36.7914V42.1667H22.208V45.0833ZM41.1664 40.7083V27.5833H38.2497V40.7083H41.1664ZM20.7497 40.7083V27.5833H17.833V40.7083H20.7497ZM43.6557 29.469L30.5307 16.344L28.4686 18.4061L41.5936 31.5311L43.6557 29.469ZM28.4686 16.344L15.3436 29.469L17.4057 31.5311L30.5307 18.4061L28.4686 16.344ZM36.7914 45.0833C37.9517 45.0833 39.0645 44.6224 39.885 43.8019C40.7054 42.9815 41.1664 41.8687 41.1664 40.7083H38.2497C38.2497 41.0951 38.096 41.4661 37.8226 41.7395C37.5491 42.013 37.1781 42.1667 36.7914 42.1667V45.0833ZM22.208 42.1667C21.8212 42.1667 21.4503 42.013 21.1768 41.7395C20.9033 41.4661 20.7497 41.0951 20.7497 40.7083H17.833C17.833 41.8687 18.294 42.9815 19.1144 43.8019C19.9349 44.6224 21.0477 45.0833 22.208 45.0833V42.1667Z" fill="#282113"/>
</svg>
