<svg width="60" height="60" viewBox="0 0 60 60" fill="none" xmlns="http://www.w3.org/2000/svg">
<rect width="60" height="60" rx="15" fill="#282113"/>
<rect x="5" y="5" width="50" height="50" rx="15" fill="white"/>
<path d="M39.7083 37.7916V30.2083C38.9792 30.3541 38.25 30.5 37.5208 30.5H36.7917V39.25H22.2083V29.0416C22.2083 24.9583 25.4167 21.75 29.5 21.75C29.6458 19.8541 30.5208 18.25 31.6875 16.9375C31.25 16.3541 30.375 15.9166 29.5 15.9166C27.8958 15.9166 26.5833 17.2291 26.5833 18.8333V19.2708C22.2083 20.5833 19.2917 24.5208 19.2917 29.0416V37.7916L16.375 40.7083V42.1666H42.625V40.7083L39.7083 37.7916ZM26.5833 43.625C26.5833 45.2291 27.8958 46.5416 29.5 46.5416C31.1042 46.5416 32.4167 45.2291 32.4167 43.625H26.5833ZM42.625 22.4791C42.625 25.25 40.2917 27.5833 37.5208 27.5833C34.75 27.5833 32.4167 25.25 32.4167 22.4791C32.4167 19.7083 34.75 17.375 37.5208 17.375C40.2917 17.375 42.625 19.7083 42.625 22.4791Z" fill="#282113"/>
</svg>
