<svg width="50" height="50" viewBox="0 0 50 50" fill="none" xmlns="http://www.w3.org/2000/svg">
<rect width="50" height="50" rx="15" fill="white"/>
<path d="M34.7083 32.7917V25.2084C33.9792 25.3542 33.25 25.5 32.5208 25.5H31.7917V34.25H17.2083V24.0417C17.2083 19.9584 20.4167 16.75 24.5 16.75C24.6458 14.8542 25.5208 13.25 26.6875 11.9375C26.25 11.3542 25.375 10.9167 24.5 10.9167C22.8958 10.9167 21.5833 12.2292 21.5833 13.8334V14.2709C17.2083 15.5834 14.2917 19.5209 14.2917 24.0417V32.7917L11.375 35.7084V37.1667H37.625V35.7084L34.7083 32.7917ZM21.5833 38.625C21.5833 40.2292 22.8958 41.5417 24.5 41.5417C26.1042 41.5417 27.4167 40.2292 27.4167 38.625H21.5833ZM37.625 17.4792C37.625 20.25 35.2917 22.5834 32.5208 22.5834C29.75 22.5834 27.4167 20.25 27.4167 17.4792C27.4167 14.7084 29.75 12.375 32.5208 12.375C35.2917 12.375 37.625 14.7084 37.625 17.4792Z" fill="#282113"/>
</svg>
