<svg width="60" height="60" viewBox="0 0 60 60" fill="none" xmlns="http://www.w3.org/2000/svg">
<rect width="60" height="60" rx="15" fill="#282113"/>
<rect x="5" y="5" width="50" height="50" rx="15" fill="white"/>
<path d="M31.8159 13.0013C31.6159 12.9958 31.4158 13.0076 31.2178 13.0366C30.698 13.113 30.21 13.3042 29.7091 13.4623C29.2082 13.6205 28.7112 13.7434 28.3408 13.7434C28.1048 13.7434 27.6775 13.7374 27.2465 13.7419C26.8162 13.7464 26.4041 13.7524 26.0398 13.8184C25.3977 13.9338 24.8415 14.2127 24.4514 14.6362C24.0605 15.0604 23.8534 15.5926 23.7577 16.1458L23.7562 16.1563L23.2994 19.0167C20.9133 19.1501 19.1853 20.5983 18.248 22.5419C18.0551 22.9344 17.9672 23.3692 17.9926 23.8048C18.0179 24.2404 18.1558 24.6624 18.393 25.0305C18.8483 25.7216 19.6004 26.1901 20.4648 26.3752C26.6682 27.7005 31.9821 27.2949 37.7635 26.4847H37.7824V26.4832L37.8166 26.4802L37.8348 26.4787L37.85 26.4757C37.9244 26.4636 37.9965 26.4406 38.064 26.4075C39.0445 26.2051 39.7769 25.7988 40.2003 25.2479C40.658 24.6512 40.7634 23.9826 40.7634 23.4744C40.7634 20.9258 38.7766 17.8526 35.1133 16.8766L34.6686 15.1721L34.6641 15.1571C34.3142 13.9211 33.1842 13.0411 31.8166 13.0013H31.8159ZM31.7977 14.4885C32.5771 14.478 33.0058 14.8745 33.2016 15.5604L33.2024 15.5619L33.7283 17.5715L33.7298 17.576C33.7376 17.6439 33.7547 17.7105 33.7807 17.7739L33.9052 18.2484L33.9203 18.3098C34.0053 18.6111 33.7352 19.2093 33.3777 19.4162C33.1591 19.5421 32.3145 19.8592 31.3317 20.0871C30.4119 20.2999 29.3335 20.4603 28.3492 20.4791C27.4051 19.8082 26.2917 19.2595 24.8293 19.0669L25.2543 16.3992C25.3173 16.0386 25.4266 15.8047 25.5731 15.6451C25.7203 15.4862 25.9206 15.3632 26.313 15.2928C26.4405 15.2696 26.8594 15.2456 27.2632 15.2411C27.6669 15.2366 28.0775 15.2426 28.3408 15.2426C29.0087 15.2426 29.6279 15.0627 30.1713 14.891C30.7147 14.7194 31.2019 14.5537 31.4417 14.5177C31.5677 14.4992 31.6864 14.4895 31.7977 14.4885ZM35.5664 18.6081C38.0192 19.6351 39.2456 21.8988 39.2456 23.4744C39.2456 23.7817 39.1849 24.0898 38.9906 24.3431C38.7994 24.592 38.4366 24.8521 37.6269 24.987C35.3334 25.1459 33.8687 24.7472 32.7091 24.0823C33.6653 23.8821 34.5206 23.5801 35.0875 23.254L35.0891 23.2525C35.9611 22.7488 36.3997 21.7226 36.1288 20.7587L35.5664 18.6081ZM34.4872 20.4761L34.6618 21.147L34.6656 21.1604C34.7529 21.47 34.6276 21.7826 34.3233 21.958C33.8133 22.2518 32.316 22.7375 31.0031 22.7983C30.8644 22.6732 30.727 22.5468 30.591 22.419C30.3959 22.2361 30.185 22.0442 29.9839 21.8553C30.5534 21.7788 31.1189 21.6758 31.6785 21.5465C32.7516 21.2976 33.5932 21.027 34.1419 20.7107H34.1435C34.2649 20.6407 34.3795 20.5625 34.4872 20.4761ZM23.65 20.4896C25.4456 20.4896 26.5824 20.9933 27.5698 21.7339C27.6348 21.8063 27.7134 21.8656 27.8012 21.9085C28.3856 22.3785 28.9305 22.9279 29.5429 23.5036C29.7327 23.6835 29.9323 23.8617 30.1417 24.0381C30.2088 24.1181 30.292 24.1834 30.3861 24.2299L30.3906 24.2329C30.9748 24.7064 31.6053 25.1212 32.2727 25.4712C28.5465 25.7501 24.8536 25.7801 20.7858 24.9106C20.2683 24.8004 19.8653 24.5185 19.6649 24.2135C19.4646 23.9099 19.4122 23.6138 19.6179 23.188C20.4269 21.5082 21.6449 20.4896 23.65 20.4896Z" fill="#282113"/>
<path d="M36.7133 30.2946C36.1728 31.9498 35.1521 33.3753 33.8012 34.3621C36.146 35.2852 38.1798 36.9404 39.6407 39.1147C41.1016 41.289 41.9228 43.8828 41.9986 46.5623C42.0057 46.711 41.9851 46.8598 41.9379 46.9998C41.8907 47.1399 41.8179 47.2684 41.7238 47.3779C41.6297 47.4873 41.5162 47.5755 41.39 47.6372C41.2637 47.699 41.1272 47.733 40.9885 47.7374C40.8498 47.7418 40.7117 47.7164 40.5823 47.6627C40.4529 47.609 40.3347 47.5281 40.2348 47.4248C40.1349 47.3214 40.0553 47.1977 40.0005 47.0609C39.9457 46.924 39.917 46.7769 39.9159 46.6279C39.8332 43.7221 38.6996 40.965 36.7553 38.941C34.811 36.9169 32.2088 35.7849 29.5002 35.7849C26.7917 35.7849 24.1895 36.9169 22.2452 38.941C20.3009 40.965 19.1673 43.7221 19.0846 46.6279C19.0763 46.9246 18.9585 47.2055 18.7573 47.409C18.556 47.6124 18.2876 47.7217 18.0113 47.7128C17.7349 47.7039 17.4731 47.5776 17.2836 47.3615C17.094 47.1455 16.9922 46.8575 17.0005 46.5608C17.0765 43.8816 17.8979 41.2881 19.3588 39.1141C20.8197 36.9401 22.8533 35.2851 25.198 34.3621C23.847 33.3753 22.8264 31.9498 22.2858 30.2946C21.9647 29.3115 21.823 28.2781 21.8617 27.2498C21.8679 27.087 21.8785 26.9243 21.8937 26.762H23.9946C23.9597 27.0319 23.9419 27.3056 23.9419 27.5812C23.9419 29.1632 24.5275 30.6805 25.5697 31.7992C26.612 32.9179 28.0256 33.5463 29.4996 33.5463C30.9735 33.5463 32.3871 32.9179 33.4294 31.7992C34.4716 30.6805 35.0572 29.1632 35.0572 27.5812C35.0572 27.3056 35.0394 27.0319 35.0045 26.762H37.1054C37.2165 27.9496 37.0853 29.1558 36.7133 30.2946Z" fill="#282113"/>
</svg>
