<svg width="50" height="50" viewBox="0 0 50 50" fill="none" xmlns="http://www.w3.org/2000/svg">
<rect width="50" height="50" rx="15" fill="white"/>
<path d="M26.8159 8.00135C26.6159 7.99576 26.4158 8.00755 26.2178 8.03658C25.698 8.11303 25.21 8.30417 24.7091 8.46233C24.2082 8.62049 23.7112 8.74342 23.3408 8.74342C23.1048 8.74342 22.6775 8.73743 22.2465 8.74192C21.8162 8.74642 21.4041 8.75242 21.0398 8.81838C20.3977 8.93381 19.8415 9.21266 19.4514 9.63616C19.0605 10.0604 18.8534 10.5926 18.7577 11.1458L18.7562 11.1563L18.2994 14.0167C15.9133 14.1501 14.1853 15.5983 13.248 17.5419C13.0551 17.9344 12.9672 18.3692 12.9926 18.8048C13.0179 19.2404 13.1558 19.6624 13.393 20.0305C13.8483 20.7216 14.6004 21.1901 15.4648 21.3752C21.6682 22.7005 26.9821 22.2949 32.7635 21.4847H32.7824V21.4832L32.8166 21.4802L32.8348 21.4787L32.85 21.4757C32.9244 21.4636 32.9965 21.4406 33.064 21.4075C34.0445 21.2051 34.7769 20.7988 35.2003 20.2479C35.658 19.6512 35.7634 18.9826 35.7634 18.4744C35.7634 15.9258 33.7766 12.8526 30.1133 11.8766L29.6686 10.1721L29.6641 10.1571C29.3142 8.92107 28.1842 8.04107 26.8166 8.00135H26.8159ZM26.7977 9.4885C27.5771 9.478 28.0058 9.87453 28.2016 10.5604L28.2024 10.5619L28.7283 12.5715L28.7298 12.576C28.7376 12.6439 28.7547 12.7105 28.7807 12.7739L28.9052 13.2484L28.9203 13.3098C29.0053 13.6111 28.7352 14.2093 28.3777 14.4162C28.1591 14.5421 27.3145 14.8592 26.3317 15.0871C25.4119 15.2999 24.3335 15.4603 23.3492 15.4791C22.4051 14.8082 21.2917 14.2595 19.8293 14.0669L20.2543 11.3992C20.3173 11.0386 20.4266 10.8047 20.5731 10.6451C20.7203 10.4862 20.9206 10.3632 21.313 10.2928C21.4405 10.2696 21.8594 10.2456 22.2632 10.2411C22.6669 10.2366 23.0775 10.2426 23.3408 10.2426C24.0087 10.2426 24.6279 10.0627 25.1713 9.89102C25.7147 9.71937 26.2019 9.55371 26.4417 9.51773C26.5677 9.49924 26.6864 9.4895 26.7977 9.4885ZM30.5664 13.6081C33.0192 14.6351 34.2456 16.8988 34.2456 18.4744C34.2456 18.7817 34.1849 19.0898 33.9906 19.3431C33.7994 19.592 33.4366 19.8521 32.6269 19.987C30.3334 20.1459 28.8687 19.7472 27.7091 19.0823C28.6653 18.8821 29.5206 18.5801 30.0875 18.254L30.0891 18.2525C30.9611 17.7488 31.3997 16.7226 31.1288 15.7587L30.5664 13.6081ZM29.4872 15.4761L29.6618 16.147L29.6656 16.1604C29.7529 16.47 29.6276 16.7826 29.3233 16.958C28.8133 17.2518 27.316 17.7375 26.0031 17.7983C25.8644 17.6732 25.727 17.5468 25.591 17.419C25.3959 17.2361 25.185 17.0442 24.9839 16.8553C25.5534 16.7788 26.1189 16.6758 26.6785 16.5465C27.7516 16.2976 28.5932 16.027 29.1419 15.7107H29.1435C29.2649 15.6407 29.3795 15.5625 29.4872 15.4761ZM18.65 15.4896C20.4456 15.4896 21.5824 15.9933 22.5698 16.7339C22.6348 16.8063 22.7134 16.8656 22.8012 16.9085C23.3856 17.3785 23.9305 17.9279 24.5429 18.5036C24.7327 18.6835 24.9323 18.8617 25.1417 19.0381C25.2088 19.1181 25.292 19.1834 25.3861 19.2299L25.3906 19.2329C25.9748 19.7064 26.6053 20.1212 27.2727 20.4712C23.5465 20.7501 19.8536 20.7801 15.7858 19.9106C15.2683 19.8004 14.8653 19.5185 14.6649 19.2135C14.4646 18.9099 14.4122 18.6138 14.6179 18.188C15.4269 16.5082 16.6449 15.4896 18.65 15.4896Z" fill="#282113"/>
<path d="M31.7133 25.2947C31.1728 26.9498 30.1521 28.3754 28.8012 29.3621C31.146 30.2852 33.1798 31.9405 34.6407 34.1148C36.1016 36.289 36.9228 38.8829 36.9986 41.5624C37.0057 41.7111 36.9851 41.8599 36.9379 41.9999C36.8907 42.14 36.8179 42.2685 36.7238 42.3779C36.6297 42.4874 36.5162 42.5756 36.39 42.6373C36.2637 42.699 36.1272 42.7331 35.9885 42.7375C35.8498 42.7418 35.7117 42.7164 35.5823 42.6628C35.4529 42.6091 35.3347 42.5282 35.2348 42.4248C35.1349 42.3215 35.0553 42.1978 35.0005 42.0609C34.9457 41.9241 34.917 41.7769 34.9159 41.628C34.8332 38.7222 33.6996 35.9651 31.7553 33.941C29.811 31.917 27.2088 30.785 24.5002 30.785C21.7917 30.785 19.1895 31.917 17.2452 33.941C15.3009 35.9651 14.1673 38.7222 14.0846 41.628C14.0763 41.9246 13.9585 42.2056 13.7573 42.409C13.556 42.6125 13.2876 42.7218 13.0113 42.7129C12.7349 42.704 12.4731 42.5776 12.2836 42.3616C12.094 42.1455 11.9922 41.8575 12.0005 41.5609C12.0765 38.8816 12.8979 36.2881 14.3588 34.1141C15.8197 31.9402 17.8533 30.2852 20.198 29.3621C18.847 28.3754 17.8264 26.9498 17.2858 25.2947C16.9647 24.3116 16.823 23.2782 16.8617 22.2499C16.8679 22.0871 16.8785 21.9244 16.8937 21.762H18.9946C18.9597 22.032 18.9419 22.3056 18.9419 22.5813C18.9419 24.1633 19.5275 25.6806 20.5697 26.7993C21.612 27.9179 23.0256 28.5464 24.4996 28.5464C25.9735 28.5464 27.3871 27.9179 28.4294 26.7993C29.4716 25.6806 30.0572 24.1633 30.0572 22.5813C30.0572 22.3056 30.0394 22.032 30.0045 21.762H32.1054C32.2165 22.9497 32.0853 24.1559 31.7133 25.2947Z" fill="#282113"/>
</svg>
