<svg width="25" height="25" viewBox="0 0 25 25" fill="none" xmlns="http://www.w3.org/2000/svg">
<path fill-rule="evenodd" clip-rule="evenodd" d="M6.25879 8.48596C6.25879 6.89466 6.89093 5.36854 8.01615 4.24332C9.14137 3.1181 10.6675 2.48596 12.2588 2.48596C13.8501 2.48596 15.3762 3.1181 16.5014 4.24332C17.6266 5.36854 18.2588 6.89466 18.2588 8.48596H19.2588C19.7892 8.48596 20.2979 8.69668 20.673 9.07175C21.0481 9.44682 21.2588 9.95553 21.2588 10.486V20.486C21.2588 21.0164 21.0481 21.5251 20.673 21.9002C20.2979 22.2752 19.7892 22.486 19.2588 22.486H5.25879C4.72836 22.486 4.21965 22.2752 3.84458 21.9002C3.4695 21.5251 3.25879 21.0164 3.25879 20.486V10.486C3.25879 9.95553 3.4695 9.44682 3.84458 9.07175C4.21965 8.69668 4.72836 8.48596 5.25879 8.48596H6.25879ZM12.2588 4.48596C13.3197 4.48596 14.3371 4.90739 15.0872 5.65753C15.8374 6.40768 16.2588 7.4251 16.2588 8.48596H8.25879C8.25879 7.4251 8.68022 6.40768 9.43036 5.65753C10.1805 4.90739 11.1979 4.48596 12.2588 4.48596ZM14.2588 14.486C14.2588 14.837 14.1664 15.1819 13.9908 15.4859C13.8153 15.79 13.5628 16.0424 13.2588 16.218V17.486C13.2588 17.7512 13.1534 18.0055 12.9659 18.1931C12.7784 18.3806 12.524 18.486 12.2588 18.486C11.9936 18.486 11.7392 18.3806 11.5517 18.1931C11.3641 18.0055 11.2588 17.7512 11.2588 17.486V16.218C10.8775 15.9978 10.5796 15.658 10.4111 15.2513C10.2426 14.8445 10.2131 14.3936 10.327 13.9683C10.441 13.5431 10.6921 13.1673 11.0413 12.8993C11.3906 12.6313 11.8185 12.486 12.2588 12.486C12.7892 12.486 13.2979 12.6967 13.673 13.0717C14.0481 13.4468 14.2588 13.9555 14.2588 14.486Z" fill="white"/>
</svg>
