<svg width="20" height="27" viewBox="0 0 20 27" fill="none" xmlns="http://www.w3.org/2000/svg">
<path d="M1.81818 12.2593V23.7423C1.81818 24.6296 2.63273 25.3621 3.62182 25.3621H16.3782C17.3655 25.3621 18.1818 24.6314 18.1818 23.7423V12.2593C18.1818 11.372 17.3673 10.6394 16.3782 10.6394H3.62182C2.63455 10.6394 1.81818 11.3702 1.81818 12.2593ZM7.27273 9.00159V10.6394H12.7273V9.00159H16.3782C18.3782 9.00159 20 10.4739 20 12.2593V23.7423C20 25.5421 18.3636 27 16.3782 27H3.62182C1.62182 27 0 25.5277 0 23.7423V12.2593C0 10.4595 1.63636 9.00159 3.62182 9.00159H7.27273ZM10.9036 2.60856L10.9091 2.70215V17.1009C10.9091 17.3396 10.8133 17.5684 10.6428 17.7372C10.4723 17.906 10.2411 18.0008 10 18.0008C9.75889 18.0008 9.52766 17.906 9.35718 17.7372C9.18669 17.5684 9.09091 17.3396 9.09091 17.1009V2.67156L5.78182 6.11105C5.6932 6.20768 5.58514 6.28489 5.46459 6.33773C5.34404 6.39057 5.21366 6.41786 5.08182 6.41786C4.94998 6.41786 4.8196 6.39057 4.69905 6.33773C4.57849 6.28489 4.47044 6.20768 4.38182 6.11105C4.19465 5.90675 4.09097 5.64082 4.09097 5.36502C4.09097 5.08921 4.19465 4.82328 4.38182 4.61898L7.92727 0.92931C8.19161 0.63693 8.51527 0.403035 8.87713 0.242902C9.23899 0.0827693 9.6309 0 10.0273 0C10.4236 0 10.8156 0.0827693 11.1774 0.242902C11.5393 0.403035 11.8629 0.63693 12.1273 0.92931L15.6727 4.61898C15.8604 4.82339 15.9644 5.08969 15.9644 5.36592C15.9644 5.64214 15.8604 5.90845 15.6727 6.11285C15.5841 6.20948 15.4761 6.28669 15.3555 6.33953C15.2349 6.39236 15.1046 6.41966 14.9727 6.41966C14.8409 6.41966 14.7105 6.39236 14.59 6.33953C14.4694 6.28669 14.3613 6.20948 14.2727 6.11285L10.9036 2.60856Z" fill="black"/>
</svg>
