<svg width="60" height="60" viewBox="0 0 60 60" fill="none" xmlns="http://www.w3.org/2000/svg">
<rect width="60" height="60" rx="15" fill="#282113"/>
<rect x="5" y="5" width="50" height="50" rx="15" fill="white"/>
<path d="M42.6247 17.375H16.3747C15.6011 17.375 14.8593 17.6823 14.3123 18.2293C13.7653 18.7763 13.458 19.5181 13.458 20.2917V24.6667H16.3747V20.2917H42.6247V40.7083H32.4163V43.625H42.6247C43.3982 43.625 44.1401 43.3177 44.6871 42.7707C45.234 42.2237 45.5413 41.4819 45.5413 40.7083V20.2917C45.5413 19.5181 45.234 18.7763 44.6871 18.2293C44.1401 17.6823 43.3982 17.375 42.6247 17.375ZM13.458 39.25V43.625H17.833C17.833 42.4647 17.3721 41.3519 16.5516 40.5314C15.7311 39.7109 14.6183 39.25 13.458 39.25ZM13.458 33.4167V36.3333C14.4156 36.3333 15.3637 36.5219 16.2484 36.8884C17.1331 37.2548 17.9369 37.7919 18.614 38.469C19.2911 39.1461 19.8282 39.9499 20.1946 40.8346C20.5611 41.7193 20.7497 42.6674 20.7497 43.625H23.6663C23.6663 40.9176 22.5908 38.3211 20.6764 36.4066C18.762 34.4922 16.1654 33.4167 13.458 33.4167ZM13.458 27.5833V30.5C15.1816 30.5 16.8883 30.8395 18.4807 31.4991C20.0731 32.1587 21.52 33.1255 22.7388 34.3442C23.9576 35.563 24.9243 37.0099 25.5839 38.6023C26.2435 40.1947 26.583 41.9014 26.583 43.625H29.4997C29.4997 34.7583 22.3101 27.5833 13.458 27.5833ZM28.0413 29.1729V32.0896L33.1455 34.875L38.2497 32.0896V29.1729L33.1455 31.9583L28.0413 29.1729ZM33.1455 21.75L25.1247 26.125L33.1455 30.5L41.1663 26.125L33.1455 21.75Z" fill="#282113"/>
</svg>
