<svg width="58" height="58" viewBox="0 0 58 58" fill="none" xmlns="http://www.w3.org/2000/svg">
<g filter="url(#filter0_d_726_24)">
<rect x="4" width="50" height="50" rx="15" fill="white"/>
<path d="M41.6247 12.375H15.3747C14.6011 12.375 13.8593 12.6823 13.3123 13.2293C12.7653 13.7763 12.458 14.5181 12.458 15.2917V19.6667H15.3747V15.2917H41.6247V35.7083H31.4163V38.625H41.6247C42.3982 38.625 43.1401 38.3177 43.6871 37.7707C44.234 37.2237 44.5413 36.4819 44.5413 35.7083V15.2917C44.5413 14.5181 44.234 13.7763 43.6871 13.2293C43.1401 12.6823 42.3982 12.375 41.6247 12.375ZM12.458 34.25V38.625H16.833C16.833 37.4647 16.3721 36.3519 15.5516 35.5314C14.7311 34.7109 13.6183 34.25 12.458 34.25ZM12.458 28.4167V31.3333C13.4156 31.3333 14.3637 31.5219 15.2484 31.8884C16.1331 32.2548 16.9369 32.7919 17.614 33.469C18.2911 34.1461 18.8282 34.9499 19.1946 35.8346C19.5611 36.7193 19.7497 37.6674 19.7497 38.625H22.6663C22.6663 35.9176 21.5908 33.3211 19.6764 31.4066C17.762 29.4922 15.1654 28.4167 12.458 28.4167ZM12.458 22.5833V25.5C14.1816 25.5 15.8883 25.8395 17.4807 26.4991C19.0731 27.1587 20.52 28.1255 21.7388 29.3442C22.9576 30.563 23.9243 32.0099 24.5839 33.6023C25.2435 35.1947 25.583 36.9014 25.583 38.625H28.4997C28.4997 29.7583 21.3101 22.5833 12.458 22.5833ZM27.0413 24.1729V27.0896L32.1455 29.875L37.2497 27.0896V24.1729L32.1455 26.9583L27.0413 24.1729ZM32.1455 16.75L24.1247 21.125L32.1455 25.5L40.1663 21.125L32.1455 16.75Z" fill="#282113"/>
</g>
<defs>
<filter id="filter0_d_726_24" x="0" y="0" width="58" height="58" filterUnits="userSpaceOnUse" color-interpolation-filters="sRGB">
<feFlood flood-opacity="0" result="BackgroundImageFix"/>
<feColorMatrix in="SourceAlpha" type="matrix" values="0 0 0 0 0 0 0 0 0 0 0 0 0 0 0 0 0 0 127 0" result="hardAlpha"/>
<feOffset dy="4"/>
<feGaussianBlur stdDeviation="2"/>
<feComposite in2="hardAlpha" operator="out"/>
<feColorMatrix type="matrix" values="0 0 0 0 0 0 0 0 0 0 0 0 0 0 0 0 0 0 0.25 0"/>
<feBlend mode="normal" in2="BackgroundImageFix" result="effect1_dropShadow_726_24"/>
<feBlend mode="normal" in="SourceGraphic" in2="effect1_dropShadow_726_24" result="shape"/>
</filter>
</defs>
</svg>
