<svg width="35" height="35" viewBox="0 0 35 35" fill="none" xmlns="http://www.w3.org/2000/svg">
<path d="M14.2191 26.25C14.2191 26.5401 14.1038 26.8183 13.8987 27.0234C13.6936 27.2285 13.4154 27.3438 13.1253 27.3438H10.9378C10.6477 27.3438 10.3695 27.2285 10.1644 27.0234C9.9593 26.8183 9.84407 26.5401 9.84407 26.25C9.84407 25.9599 9.9593 25.6817 10.1644 25.4766C10.3695 25.2715 10.6477 25.1562 10.9378 25.1562H13.1253C13.4154 25.1562 13.6936 25.2715 13.8987 25.4766C14.1038 25.6817 14.2191 25.9599 14.2191 26.25ZM24.0628 25.1562H21.8753C21.5852 25.1562 21.307 25.2715 21.1019 25.4766C20.8968 25.6817 20.7816 25.9599 20.7816 26.25C20.7816 26.5401 20.8968 26.8183 21.1019 27.0234C21.307 27.2285 21.5852 27.3438 21.8753 27.3438H24.0628C24.3529 27.3438 24.6311 27.2285 24.8362 27.0234C25.0413 26.8183 25.1566 26.5401 25.1566 26.25C25.1566 25.9599 25.0413 25.6817 24.8362 25.4766C24.6311 25.2715 24.3529 25.1562 24.0628 25.1562ZM13.6722 18.5938C13.9967 18.5938 14.3139 18.4975 14.5837 18.3173C14.8535 18.137 15.0638 17.8807 15.1879 17.581C15.3121 17.2812 15.3446 16.9513 15.2813 16.6331C15.218 16.3148 15.0617 16.0225 14.8323 15.793C14.6028 15.5636 14.3105 15.4073 13.9923 15.344C13.674 15.2807 13.3441 15.3132 13.0444 15.4374C12.7446 15.5616 12.4883 15.7718 12.3081 16.0416C12.1278 16.3114 12.0316 16.6286 12.0316 16.9531C12.0316 17.3882 12.2044 17.8055 12.5121 18.1132C12.8198 18.4209 13.2371 18.5938 13.6722 18.5938ZM21.3284 18.5938C21.6529 18.5938 21.9701 18.4975 22.2399 18.3173C22.5097 18.137 22.72 17.8807 22.8442 17.581C22.9684 17.2812 23.0009 16.9513 22.9375 16.6331C22.8742 16.3148 22.718 16.0225 22.4885 15.793C22.2591 15.5636 21.9668 15.4073 21.6485 15.344C21.3303 15.2807 21.0004 15.3132 20.7006 15.4374C20.4008 15.5616 20.1446 15.7718 19.9643 16.0416C19.784 16.3114 19.6878 16.6286 19.6878 16.9531C19.6878 17.3882 19.8607 17.8055 20.1683 18.1132C20.476 18.4209 20.8933 18.5938 21.3284 18.5938ZM33.413 16.6961C33.2079 16.9473 32.9495 17.1497 32.6565 17.2887C32.3636 17.4278 32.0434 17.4999 31.7191 17.5H27.3441V21.875C28.2623 22.5637 28.9406 23.5238 29.2828 24.6194C29.6251 25.715 29.6139 26.8905 29.2509 27.9794C28.888 29.0683 28.1916 30.0154 27.2605 30.6865C26.3293 31.3576 25.2106 31.7188 24.0628 31.7188H10.9378C9.79002 31.7188 8.67133 31.3576 7.74019 30.6865C6.80905 30.0154 6.11267 29.0683 5.74971 27.9794C5.38674 26.8905 5.37559 25.715 5.71782 24.6194C6.06006 23.5238 6.73833 22.5637 7.65657 21.875V17.5H3.28157C2.95985 17.4995 2.6422 17.428 2.35127 17.2906C2.06034 17.1533 1.80329 16.9535 1.59843 16.7054C1.39358 16.4573 1.24596 16.1671 1.16611 15.8554C1.08626 15.5438 1.07613 15.2184 1.13645 14.9023C1.48716 13.1688 2.42589 11.6096 3.79385 10.4885C5.16181 9.36747 6.87503 8.75332 8.64368 8.75H8.8679C8.138 8.03853 7.558 7.18808 7.1621 6.24882C6.76621 5.30957 6.56244 4.30053 6.56282 3.28125C6.56282 2.99117 6.67805 2.71297 6.88317 2.50785C7.08829 2.30273 7.36649 2.1875 7.65657 2.1875C7.94665 2.1875 8.22485 2.30273 8.42997 2.50785C8.63509 2.71297 8.75032 2.99117 8.75032 3.28125C8.75032 4.73165 9.32649 6.12265 10.3521 7.14824C11.3777 8.17383 12.7687 8.75 14.2191 8.75H20.7816C21.4997 8.75 22.2109 8.60855 22.8744 8.33372C23.5379 8.05889 24.1407 7.65606 24.6486 7.14824C25.1564 6.64042 25.5592 6.03755 25.834 5.37405C26.1089 4.71055 26.2503 3.99942 26.2503 3.28125C26.2503 2.99117 26.3656 2.71297 26.5707 2.50785C26.7758 2.30273 27.054 2.1875 27.3441 2.1875C27.6342 2.1875 27.9124 2.30273 28.1175 2.50785C28.3226 2.71297 28.4378 2.99117 28.4378 3.28125C28.4382 4.30053 28.2344 5.30957 27.8385 6.24882C27.4426 7.18808 26.8626 8.03853 26.1327 8.75H26.357C28.1256 8.75332 29.8388 9.36747 31.2068 10.4885C32.5748 11.6096 33.5135 13.1688 33.8642 14.9023C33.9263 15.2161 33.918 15.5397 33.84 15.8499C33.762 16.1601 33.6162 16.4491 33.413 16.6961ZM9.84407 20.8906C10.2041 20.8181 10.5705 20.7814 10.9378 20.7812H24.0628C24.4301 20.7814 24.7965 20.8181 25.1566 20.8906V14.2188C25.1566 13.3485 24.8109 12.5139 24.1955 11.8986C23.5802 11.2832 22.7456 10.9375 21.8753 10.9375H13.1253C12.2551 10.9375 11.4205 11.2832 10.8051 11.8986C10.1898 12.5139 9.84407 13.3485 9.84407 14.2188V20.8906ZM7.65657 15.3125V14.2188C7.65459 13.0352 8.03858 11.8832 8.75032 10.9375H8.64095C7.38084 10.9396 6.15993 11.3757 5.18378 12.1726C4.20762 12.9694 3.53585 14.0783 3.28157 15.3125H7.65657ZM27.3441 26.25C27.3441 25.3798 26.9984 24.5452 26.383 23.9298C25.7677 23.3145 24.9331 22.9688 24.0628 22.9688H10.9378C10.0676 22.9688 9.23298 23.3145 8.61763 23.9298C8.00227 24.5452 7.65657 25.3798 7.65657 26.25C7.65657 27.1202 8.00227 27.9548 8.61763 28.5702C9.23298 29.1855 10.0676 29.5312 10.9378 29.5312H24.0628C24.9331 29.5312 25.7677 29.1855 26.383 28.5702C26.9984 27.9548 27.3441 27.1202 27.3441 26.25ZM31.7191 15.3125C31.465 14.0782 30.7933 12.9692 29.8171 12.1723C28.8409 11.3754 27.6199 10.9393 26.3597 10.9375H26.2503C26.9621 11.8832 27.3461 13.0352 27.3441 14.2188V15.3125H31.7191Z" fill="white"/>
</svg>
